<svg width="17" height="36" viewBox="0 0 17 36" fill="none" xmlns="http://www.w3.org/2000/svg">
<circle cx="8" cy="4" r="3" fill="#9BBFFA"/>
<path d="M9 33H7.5L6.5 35H5V24H1.5V14L4.5 11H12.5L15.5 14V24H12V35H10.5L9 33Z" fill="#9BBFFA"/>
<path fill-rule="evenodd" clip-rule="evenodd" d="M8.5 8C10.7091 8 12.5 6.2091 12.5 4C12.5 1.79086 10.7091 0 8.5 0C6.2909 0 4.5 1.79086 4.5 4C4.5 6.2091 6.2909 8 8.5 8ZM8.5 6C9.6046 6 10.5 5.1046 10.5 4C10.5 2.89543 9.6046 2 8.5 2C7.3954 2 6.5 2.89543 6.5 4C6.5 5.1046 7.3954 6 8.5 6Z" fill="#3978DD"/>
<path fill-rule="evenodd" clip-rule="evenodd" d="M3.37023 10.8415C4.3616 10.2453 5.4552 10 6.5458 10H10.4542C11.5448 10 12.6384 10.2453 13.6298 10.8415C14.619 11.4364 15.329 12.2739 15.8214 13.1838C16.7505 14.9006 17 17.0478 17 19.1435V19.2321C17 19.2617 16.9987 19.2912 16.9961 19.3206L16.9882 19.4088L16.9874 19.4224C16.9868 19.4327 16.9862 19.4468 16.9856 19.4657C16.9844 19.5038 16.9833 19.5553 16.9827 19.6231C16.9814 19.7589 16.9819 19.9482 16.9846 20.2059C16.9858 20.3209 16.9873 20.4452 16.989 20.5785V20.5821C16.994 20.9889 17 21.4753 17 22C17 23.6569 15.6569 25 14 25C13.8299 25 13.6628 24.9858 13.5 24.9584V33.5C13.5 34.8228 12.4696 35.9166 11.1492 35.9955C9.8288 36.0745 8.6754 35.1112 8.5178 33.7979L8.5 33.6495L8.4822 33.7979C8.3246 35.1112 7.1712 36.0745 5.8508 35.9955C4.5304 35.9166 3.5 34.8228 3.5 33.5V24.9584C3.33718 24.9858 3.17011 25 3 25C1.34315 25 0 23.6569 0 22C0 21.4745 0.00600017 20.9877 0.0110102 20.5805L0.0110402 20.5787C0.0126802 20.4454 0.0142099 20.3209 0.0154099 20.2059C0.0180899 19.9482 0.0185601 19.7589 0.0173001 19.6231C0.0166701 19.5553 0.01564 19.5038 0.01439 19.4657C0.01378 19.4468 0.0131499 19.4327 0.0125999 19.4224L0.0117502 19.4087L0.00392008 19.3206C0.00131008 19.2912 0 19.2617 0 19.2321V19.1435C2e-05 17.0478 0.24949 14.9006 1.17857 13.1838C1.67098 12.2739 2.381 11.4364 3.37023 10.8415ZM14 23C13.8162 23 13.6468 22.9513 13.5007 22.8668L13.5 17H11.5V33.5C11.5 33.7645 11.2939 33.9833 11.0298 33.9991C10.7658 34.0149 10.5351 33.8222 10.5036 33.5596L9.4929 25.1372C9.4326 24.6346 9.0062 24.2563 8.5 24.2563C7.9938 24.2563 7.5674 24.6346 7.5071 25.1372L6.4964 33.5596C6.4649 33.8222 6.2342 34.0149 5.9702 33.9991C5.7061 33.9833 5.5 33.7645 5.5 33.5V17H3.5L3.49928 22.8668C3.35321 22.9513 3.1838 23 3 23C2.44772 23 2 22.5523 2 22C2 21.4876 2.00586 21.011 2.0109 20.6025C2.01253 20.4699 2.01408 20.3439 2.0153 20.2267C2.02053 19.7244 2.01897 19.4014 2.00392 19.232L2 19.1878V19.1435C2.00002 17.1478 2.2491 15.4078 2.93751 14.1357C3.29111 13.4823 3.77026 12.9347 4.401 12.5554C5.0324 12.1757 5.757 12 6.5458 12H10.4542C11.243 12 11.9676 12.1757 12.599 12.5554C13.2297 12.9347 13.7089 13.4823 14.0625 14.1357C14.7509 15.4078 15 17.1478 15 19.1435V19.1878L14.9961 19.232C14.981 19.4014 14.9795 19.7244 14.9847 20.2267C14.9859 20.3423 14.9874 20.4674 14.9891 20.5982V20.6031C14.9941 21.0116 15 21.4875 15 22C15 22.5523 14.5523 23 14 23Z" fill="#3978DD"/>
</svg>
