<svg width="17" height="36" viewBox="0 0 17 36" fill="none" xmlns="http://www.w3.org/2000/svg">
<circle cx="9" cy="4" r="3" fill="#F28FD6"/>
<path d="M3.5 29L4.5 24L1 22.5L3.5 12.5L9 11L13.5 12L16 23L13 24L13.5 28.5L9 30L3.5 29Z" fill="#F28FD6"/>
<path fill-rule="evenodd" clip-rule="evenodd" d="M13.0002 4C13.0002 6.2091 11.2093 8 9.00024 8C6.79104 8 5.00024 6.2091 5.00024 4C5.00024 1.79086 6.79104 0 9.00024 0C11.2093 0 13.0002 1.79086 13.0002 4ZM11.0002 4C11.0002 5.1046 10.1047 6 9.00024 6C7.89564 6 7.00024 5.1046 7.00024 4C7.00024 2.89543 7.89564 2 9.00024 2C10.1047 2 11.0002 2.89543 11.0002 4Z" fill="#D917A2"/>
<path fill-rule="evenodd" clip-rule="evenodd" d="M12.4464 10.4437C11.6598 10.0476 10.9092 10.0001 10.4789 10L10.0163 10.0002L10.0092 10.0001L6.52117 10.0002C6.09137 10.0003 5.34097 10.0478 4.55437 10.4439C3.22357 11.1139 2.46407 12.2111 2.01297 13.1805C1.58157 14.1075 1.33287 15.1339 1.14827 15.9882C0.972967 16.7992 0.968667 16.8204 0.868867 17.333C0.773467 17.8232 0.586866 18.7823 0.0592661 21.4096C-0.266834 23.034 0.785566 24.6153 2.40997 24.9415C2.67007 24.9937 2.92887 25.0105 3.18157 24.9954L2.64237 28.0956C2.49307 28.9544 2.92627 29.8919 3.85237 30.2222C4.75977 30.5458 6.40457 31 8.50017 31C10.5957 31 12.2405 30.5458 13.1479 30.2222C14.074 29.8919 14.5072 28.9544 14.3579 28.0956L13.8187 24.9952C14.0716 25.0104 14.3306 24.9935 14.5908 24.9413C16.2152 24.6151 17.2676 23.0338 16.9415 21.4094C16.4138 18.7816 16.2271 17.8223 16.1317 17.3322C16.032 16.8196 16.0278 16.799 15.8525 15.988C15.6679 15.1337 15.4192 14.1073 14.9878 13.1803C14.5367 12.211 13.7772 11.1138 12.4464 10.4437ZM9.99856 12.0002L10.4786 12C10.7634 12.0001 11.1577 12.034 11.547 12.23C12.34 12.6293 12.8373 13.2996 13.1745 14.0242C13.5047 14.7338 13.7163 15.5715 13.8977 16.4106C14.07 17.2079 14.0724 17.2201 14.1663 17.7025L14.1686 17.7142C14.2648 18.2085 14.4521 19.1713 14.9806 21.8031C15.0893 22.3446 14.7385 22.8717 14.197 22.9804C13.9457 23.0309 13.697 22.9828 13.4913 22.861L12.3051 16.3372L10.3374 16.695L10.963 20.1356L10.9389 20.109L12.3762 28.3734C11.6031 28.6394 10.2335 29 8.50017 29C6.76677 29 5.39727 28.6394 4.62407 28.3734L6.06077 20.1129L6.03667 20.1395L6.66287 16.695L4.69517 16.3372L3.50887 22.8615C3.30327 22.983 3.05477 23.031 2.80377 22.9806C2.26227 22.8719 1.91147 22.3448 2.02017 21.8033C2.54867 19.1714 2.73597 18.2087 2.83217 17.7144L2.83447 17.7026C2.92837 17.2203 2.93077 17.2081 3.10307 16.4108C3.28447 15.5716 3.49607 14.7339 3.82627 14.0243C4.16347 13.2997 4.66077 12.6295 5.45377 12.2302C5.84307 12.0342 6.23717 12.0003 6.52187 12.0002L9.99107 12.0001L9.99856 12.0002Z" fill="#D917A2"/>
<path d="M5.28564 35.9131C4.54774 35.8064 4.00024 35.1741 4.00024 34.4285V32C5.30584 32.1798 6.50754 32.2909 7.68234 32.3349L6.93884 34.8533C6.72774 35.5683 6.02354 36.0197 5.28564 35.9131Z" fill="#D917A2"/>
<path d="M9.26538 32.3536L10.0709 34.8835C10.2952 35.5881 10.9997 36.0242 11.7304 35.9106C12.4612 35.7971 13.0002 35.1679 13.0002 34.4284V32.092C11.6896 32.249 10.4732 32.3368 9.26538 32.3536Z" fill="#D917A2"/>
</svg>
