<svg width="32" height="32" viewBox="0 0 32 32" fill="none" xmlns="http://www.w3.org/2000/svg">
<path fill-rule="evenodd" clip-rule="evenodd" d="M19 5.66666C19 7.32352 17.6569 8.66666 16 8.66666C14.3431 8.66666 13 7.32352 13 5.66666C13 4.0098 14.3431 2.66666 16 2.66666C17.6569 2.66666 19 4.0098 19 5.66666ZM17.6667 5.66666C17.6667 6.58713 16.9205 7.33332 16 7.33332C15.0795 7.33332 14.3333 6.58713 14.3333 5.66666C14.3333 4.74618 15.0795 3.99999 16 3.99999C16.9205 3.99999 17.6667 4.74618 17.6667 5.66666Z" fill="#333333"/>
<path fill-rule="evenodd" clip-rule="evenodd" d="M13.3181 10C12.5446 10 11.7763 10.175 11.0832 10.5944C10.3921 11.0126 9.89467 11.6019 9.54801 12.2465C8.89147 13.4672 8.70801 15.0104 8.70801 16.5507V16.6095C8.70801 16.629 8.70887 16.6486 8.71061 16.6681L8.71574 16.7266C8.72014 16.7765 8.72341 16.9445 8.71934 17.3401C8.71847 17.4259 8.71734 17.5183 8.71614 17.6173L8.71607 17.6185C8.71241 17.9201 8.70801 18.2789 8.70801 18.6667C8.70801 19.7713 9.60347 20.6667 10.708 20.6667C10.9265 20.6667 11.1366 20.6317 11.3333 20.567V20.6667L11.3333 20.6741V27.3333C11.3333 28.4027 12.1745 29.2828 13.2427 29.3313C14.3109 29.3797 15.2283 28.5793 15.3251 27.5144L15.8871 21.3333H16.113L16.6749 27.5144C16.7717 28.5793 17.6891 29.3797 18.7573 29.3313C19.8255 29.2828 20.6667 28.4027 20.6667 27.3333V20.5529C20.8751 20.6266 21.0995 20.6667 21.3332 20.6667C22.4377 20.6667 23.3332 19.7713 23.3332 18.6667C23.3332 18.2795 23.3288 17.9213 23.3251 17.6201L23.3251 17.6173C23.3239 17.5183 23.3227 17.4259 23.3219 17.3401C23.3177 16.9445 23.321 16.7765 23.3254 16.7266L23.3306 16.6681C23.3323 16.6486 23.3332 16.629 23.3332 16.6095V16.5507C23.3331 15.0104 23.1497 13.4672 22.4932 12.2465C22.1465 11.6019 21.6491 11.0126 20.958 10.5944C20.2649 10.175 19.4966 10 18.723 10H13.3181ZM10.708 19.3333C10.9939 19.3333 11.2391 19.1529 11.3333 18.8989V14.3333H12.6667V20.6649V20.6667V27.3333C12.6667 27.6898 12.9471 27.9831 13.3031 27.9993C13.6592 28.0155 13.965 27.7487 13.9973 27.3937L14.6143 20.6063C14.6455 20.2629 14.9335 20 15.2783 20H16.7218C17.0666 20 17.3545 20.2629 17.3857 20.6063L18.0027 27.3937C18.035 27.7487 18.3408 28.0155 18.6969 27.9993C19.0529 27.9831 19.3333 27.6898 19.3333 27.3333V19.9979L19.3333 19.9903V19.9871V18.6842L19.3333 18.676V14.3333H20.6667V18.6817C20.6745 19.0429 20.97 19.3333 21.3332 19.3333C21.7013 19.3333 21.9999 19.0349 21.9999 18.6667C21.9999 18.2876 21.9955 17.9361 21.9919 17.6337L21.9917 17.6255C21.9916 17.6135 21.9915 17.6017 21.9913 17.5899C21.9903 17.5072 21.9893 17.4282 21.9886 17.3539C21.9847 16.9828 21.9858 16.7395 21.9973 16.6093L21.9999 16.5801V16.5507C21.9998 15.0763 21.8165 13.8033 21.3189 12.8781C21.0639 12.4039 20.7196 12.0086 20.2677 11.7351C19.8151 11.4612 19.2939 11.3333 18.723 11.3333H13.3181C12.7473 11.3333 12.2261 11.4612 11.7735 11.7351C11.3216 12.0086 10.9773 12.4039 10.7223 12.8781C10.2247 13.8033 10.0413 15.0763 10.0413 16.5507V16.5801L10.0439 16.6093C10.0554 16.7395 10.0565 16.9828 10.0526 17.3539C10.0517 17.4411 10.0505 17.5347 10.0493 17.6331C10.0457 17.9355 10.0413 18.2876 10.0413 18.6667C10.0413 19.0349 10.3398 19.3333 10.708 19.3333Z" fill="#333333"/>
</svg>
