<svg width="32" height="32" viewBox="0 0 32 32" fill="none" xmlns="http://www.w3.org/2000/svg">
<path fill-rule="evenodd" clip-rule="evenodd" d="M16 22.2222C17.914 22.2222 19.5555 20.6084 19.5555 18.5051C19.5555 16.6554 18.4838 14.4047 17.1817 12.4271C16.7744 11.8084 16.3658 11.2477 16 10.7732C15.6342 11.2477 15.2256 11.8084 14.8182 12.4271C13.5161 14.4047 12.4444 16.6554 12.4444 18.5051C12.4444 20.6084 14.0859 22.2222 16 22.2222ZM14.8414 9.36871C13.2727 11.3489 10.6666 15.1441 10.6666 18.5051C10.6666 21.5398 13.0544 24 16 24C18.9455 24 21.3333 21.5398 21.3333 18.5051C21.3333 15.1441 18.7273 11.3489 17.1586 9.36871C16.4832 8.51609 16 8 16 8C16 8 15.5168 8.51609 14.8414 9.36871Z" fill="#333333"/>
</svg>
