<svg width="32" height="32" viewBox="0 0 32 32" fill="none" xmlns="http://www.w3.org/2000/svg">
<path fill-rule="evenodd" clip-rule="evenodd" d="M23.9008 10.8337C24.3955 11.3792 24.2439 12.2175 23.641 12.6404L20.3928 14.9187C19.79 15.3416 18.9663 15.1709 18.3706 14.7381C18.2182 14.6272 18.0576 14.5269 17.8902 14.4381C17.3281 14.1397 16.7034 13.9787 16.0671 13.9681C15.4308 13.9575 14.801 14.0977 14.2294 14.3771C14.059 14.4604 13.8952 14.5553 13.7392 14.661C13.1294 15.0739 12.3006 15.217 11.7121 14.7743L8.54151 12.3891C7.95305 11.9465 7.82938 11.1035 8.34198 10.5749C9.19871 9.69126 10.2044 8.96006 11.3162 8.41666C12.8286 7.67752 14.4944 7.30679 16.1774 7.33479C17.8605 7.36279 19.5131 7.78872 21 8.57779C22.0931 9.15786 23.0739 9.92212 23.9008 10.8337ZM22.797 11.6038C22.0984 10.8614 21.2808 10.2363 20.375 9.75559C19.074 9.06512 17.628 8.69246 16.1552 8.66792C14.6826 8.64346 13.225 8.96786 11.9017 9.61459C10.9804 10.0649 10.1424 10.6625 9.41951 11.3812L12.511 13.7069C12.521 13.7101 12.547 13.7151 12.5984 13.7105C12.7029 13.7011 12.8496 13.6531 12.9916 13.5569C13.1993 13.4163 13.4172 13.29 13.6438 13.1792C14.4046 12.8074 15.2426 12.6209 16.0892 12.635C16.1233 12.6355 16.1573 12.6365 16.1912 12.6377C16.2167 12.5843 16.2497 12.5333 16.2904 12.4865L18.1214 10.3813C18.363 10.1035 18.7841 10.0741 19.0619 10.3157C19.3398 10.5574 19.3691 10.9785 19.1274 11.2563L17.6912 12.9077C17.9743 13.0017 18.25 13.1195 18.5152 13.2603C18.738 13.3785 18.9516 13.512 19.1545 13.6595C19.2932 13.7603 19.4383 13.8132 19.5424 13.826C19.5936 13.8323 19.6198 13.8282 19.6298 13.8253L22.797 11.6038ZM19.635 13.8231C19.6352 13.8233 19.6333 13.8243 19.6298 13.8253C19.6328 13.8236 19.6348 13.8229 19.635 13.8231ZM12.506 13.7045C12.5061 13.7043 12.5082 13.7051 12.511 13.7069C12.5076 13.7057 12.5058 13.7047 12.506 13.7045Z" fill="#333333"/>
<path fill-rule="evenodd" clip-rule="evenodd" d="M24.1441 28C25.5594 28 26.7281 26.8944 26.8066 25.4813L27.8437 6.8146C27.9286 5.28605 26.712 4 25.1811 4H6.81897C5.28808 4 4.07149 5.28605 4.15641 6.8146L5.19345 25.4813C5.27195 26.8943 6.44072 28 7.85597 28H24.1441ZM7.85597 26.6667H24.1441C24.8517 26.6667 25.4361 26.1139 25.4754 25.4073L26.5124 6.7406C26.5548 5.97636 25.9466 5.33333 25.1811 5.33333H6.81897C6.05353 5.33333 5.44523 5.97636 5.48769 6.7406L6.52473 25.4073C6.56398 26.1139 7.14837 26.6667 7.85597 26.6667Z" fill="#333333"/>
</svg>
