<svg width="100%" height="100%" viewBox="0 0 114 28" fill="none" xmlns="http://www.w3.org/2000/svg">
<path d="M43.6499 18.4762C43.9603 17.7127 44.2864 16.8573 44.6281 15.9098C45.76 12.8697 46.652 10.7312 47.3041 9.49468C49.0732 6.19414 51.3235 4.54407 54.0544 4.54407V8.92061C53.1075 8.92061 52.1685 9.79137 51.2373 11.5333C50.6792 12.5877 49.8723 14.5429 48.8169 17.399C48.2274 19.0336 47.6843 20.4318 47.1881 21.5934C46.5516 22.7076 45.6976 23.5626 44.6266 24.1583C43.5562 24.7547 42.4389 25.0533 41.2749 25.0533C40.1117 25.0533 39.0022 24.7624 37.9468 24.1814C36.891 23.6012 36.0378 22.7385 35.3868 21.5934C35.3398 21.4862 35.2932 21.3793 35.2473 21.2725C35.154 21.0738 35.0686 20.8751 34.9902 20.6768C34.6022 19.7138 34.1911 18.6212 33.7565 17.399C32.7018 14.5429 31.8949 12.5877 31.336 11.5333C30.4048 9.79137 29.4737 8.92061 28.5425 8.92061V4.54407C31.2584 4.54407 33.5013 6.19414 35.2708 9.49468C35.9218 10.7312 36.8138 12.8697 37.9468 15.9098C38.2886 16.8573 38.6146 17.7127 38.925 18.4762L39.3671 19.5765C39.5529 19.9129 39.8205 20.1803 40.1697 20.3789C40.5185 20.5772 40.8869 20.6768 41.2749 20.6768C41.6637 20.6768 42.036 20.5772 42.3927 20.3789C42.7501 20.1803 43.0295 19.9052 43.2313 19.5533L43.6499 18.4762Z" fill="#737373"/>
<path d="M18.281 14.1697C17.1593 12.3302 16.2732 11.0354 15.6222 10.2854C14.3211 8.7322 12.9921 7.95519 11.6357 7.95519C9.78039 7.95519 8.20921 8.59563 6.92178 9.87649C5.5932 11.1442 4.9293 12.6909 4.9293 14.5169C4.9293 16.3433 5.5932 17.89 6.92178 19.1574C8.20921 20.466 9.78039 21.1203 11.6357 21.1203C13.4769 21.1203 15.0485 20.466 16.3496 19.1574C17.637 17.89 18.281 16.3433 18.281 14.5169V14.1697ZM11.6357 4.05087C13.9891 4.05087 16.1348 5.08019 18.0725 7.13884C19.2074 8.35103 20.6677 10.4764 22.454 13.5154C23.9629 16.064 25.119 17.8082 25.9217 18.7484C27.2499 20.302 28.593 21.0787 29.9505 21.0787V24.983C27.5685 24.983 25.4091 23.9544 23.4714 21.8966C22.835 21.2291 22.0943 20.2754 21.2501 19.0354C20.7379 20.0705 20.032 21.0378 19.1322 21.9367C17.0555 23.9675 14.5566 24.983 11.6357 24.983C8.70106 24.983 6.18851 23.9675 4.09844 21.9367C2.03542 19.8657 1.00391 17.3927 1.00391 14.5169C1.00391 11.6415 2.03542 9.18205 4.09844 7.13884C6.18851 5.08019 8.70106 4.05087 11.6357 4.05087Z" fill="#737373"/>
<path d="M72.2183 18.4762C72.5287 17.7127 72.8547 16.8573 73.1965 15.9098C74.3283 12.8697 75.2203 10.7312 75.8725 9.49468C77.6415 6.19414 79.8919 4.54407 82.6227 4.54407V8.92061C81.6759 8.92061 80.7369 9.79137 79.8057 11.5333C79.2476 12.5877 78.4407 14.5429 77.3852 17.399C76.7958 19.0336 76.2526 20.4318 75.7564 21.5934C75.12 22.7076 74.266 23.5626 73.1949 24.1583C72.1246 24.7547 71.0073 25.0533 69.8433 25.0533C68.6801 25.0533 67.5706 24.7624 66.5152 24.1814C65.4594 23.6012 64.6062 22.7385 63.9552 21.5934C63.9082 21.4862 63.8615 21.3793 63.8157 21.2725C63.7224 21.0738 63.637 20.8751 63.5586 20.6768C63.1706 19.7138 62.7595 18.6212 62.3248 17.399C61.2702 14.5429 60.4633 12.5877 59.9044 11.5333C58.9732 9.79137 58.042 8.92061 57.1108 8.92061V4.54407C59.8268 4.54407 62.0697 6.19414 63.8392 9.49468C64.4902 10.7312 65.3821 12.8697 66.5152 15.9098C66.8569 16.8573 67.183 17.7127 67.4934 18.4762L67.9355 19.5765C68.1212 19.9129 68.3889 20.1803 68.7381 20.3789C69.0869 20.5772 69.4553 20.6768 69.8433 20.6768C70.2321 20.6768 70.6044 20.5772 70.961 20.3789C71.3184 20.1803 71.5979 19.9052 71.7997 19.5533L72.2183 18.4762Z" fill="#BA0808"/>
<path d="M101.213 14.2647C100.092 12.4263 99.2065 11.1327 98.5555 10.3835C97.2552 8.83025 95.927 8.05325 94.5706 8.05325C92.7164 8.05325 91.1457 8.69368 89.8582 9.97454C88.5296 11.2411 87.8657 12.787 87.8657 14.6119C87.8657 16.4383 88.5296 17.9846 89.8582 19.2508C91.1457 20.5586 92.7164 21.2122 94.5706 21.2122C96.411 21.2122 97.9818 20.5586 99.2829 19.2508C100.569 17.9846 101.213 16.4383 101.213 14.6119V14.2647ZM94.5706 4.15047C96.9228 4.15047 99.0682 5.17902 101.006 7.23534C102.141 8.44831 103.601 10.5741 105.386 13.6119C106.894 16.1593 108.049 17.9028 108.852 18.8418C110.18 20.3955 111.522 21.1721 112.879 21.1721V25.0749C110.498 25.0749 108.34 24.0467 106.403 21.99C105.766 21.3225 105.025 20.3688 104.182 19.1289C103.67 20.164 102.964 21.1312 102.064 22.0301C99.9884 24.0602 97.4903 25.0749 94.5706 25.0749C91.6367 25.0749 89.1253 24.0602 87.0365 22.0301C84.9742 19.9591 83.9435 17.4865 83.9435 14.6119C83.9435 11.7384 84.9742 9.27971 87.0365 7.23534C89.1253 5.17902 91.6367 4.15047 94.5706 4.15047Z" fill="#BA0808"/>
</svg>
